<svg xmlns="http://www.w3.org/2000/svg" id="Layer_1" data-name="Layer 1" viewBox="0 0 150 145"><defs><style>.cls-1{fill:#e42128}</style></defs><path d="M122.59 96.94c-8.23 0-14.93 6.7-14.93 14.93 0 1.1.13 2.19.37 3.25a55.636 55.636 0 0 1-35.71 12.95c-30.74 0-55.75-25.01-55.75-55.75s25.01-55.75 55.75-55.75c13.11 0 25.71 4.59 35.72 12.96a14.91 14.91 0 0 0-.38 3.27c0 8.23 6.7 14.93 14.93 14.93s14.93-6.7 14.93-14.93-6.7-14.93-14.93-14.93c-.83 0-1.64.08-2.45.21A72.147 72.147 0 0 0 72.32 0C32.44 0 0 32.44 0 72.32s32.44 72.32 72.32 72.32c17.64 0 34.58-6.41 47.79-18.05.81.14 1.64.22 2.48.22 8.23 0 14.93-6.7 14.93-14.93s-6.7-14.93-14.93-14.93Zm8.91-64.14c0 4.91-3.99 8.9-8.9 8.9s-8.9-3.99-8.9-8.9c0-2.49 1-4.8 2.84-6.5 1.64-1.55 3.8-2.4 6.07-2.4 4.91 0 8.9 3.99 8.9 8.9Zm-8.91 87.98a8.82 8.82 0 0 1-6.11-2.44 8.867 8.867 0 0 1-2.8-6.46c0-4.91 3.99-8.9 8.9-8.9s8.9 3.99 8.9 8.9-3.99 8.9-8.9 8.9Z" class="cls-1"/><circle cx="72.53" cy="72.43" r="36.3" class="cls-1"/></svg>
