<?xml version="1.0" encoding="UTF-8" standalone="no"?>
<!-- Created with Inkscape (http://www.inkscape.org/) -->

<svg
   width="107.68843mm"
   height="109.77291mm"
   viewBox="0 0 107.68843 109.77291"
   version="1.1"
   id="svg1"
   xmlns="http://www.w3.org/2000/svg"
   xmlns:svg="http://www.w3.org/2000/svg">
  <defs
     id="defs1" />
  <g
     id="layer5"
     style="display:inline"
     transform="translate(-45.470855,-18.22577)">
    <path
       id="path21"
       style="baseline-shift:baseline;display:inline;overflow:visible;vector-effect:none;fill:#1e3c72;stroke-linecap:round;stroke-linejoin:round;enable-background:accumulate;stop-color:#000000"
       d="m 125.86572,18.409733 c -10.74131,1.436473 -19.37282,10.066508 -20.80955,20.807553 -0.23231,1.736732 -0.23231,4.594591 -10e-6,6.331335 1.43674,10.74132 10.06826,19.372842 20.80958,20.809564 1.73674,0.232299 4.59459,0.232303 6.33134,-8e-6 10.92701,-1.461622 19.66927,-10.36931 20.87565,-21.36936 0.15713,-1.432736 0.10489,-3.782632 -0.19432,-5.190934 -0.27449,-1.291939 -2.06564,-0.910621 -3.77051,0.792958 l -8.08218,8.076046 c -0.97933,0.97859 -2.56461,2.621582 -3.80772,3.215805 -0.68077,0.325413 -1.39605,0.534677 -2.11169,0.620282 -1.71854,0.205571 -4.38479,-1.075234 -5.9717,-1.821221 -0.99885,-0.469545 -3.14088,-1.428807 -4.4682,-2.566538 -0.45593,-0.390809 -0.88036,-0.816015 -1.27035,-1.272678 -1.1353,-1.329403 -2.3138,-3.950395 -3.05677,-5.538718 -0.46657,-0.997432 -1.51824,-3.186659 -1.31081,-4.904943 0.0608,-0.503535 0.18274,-1.006819 0.36322,-1.497979 0.60013,-1.633133 2.72848,-3.636055 3.97009,-4.874249 2.98232,-2.974124 5.89428,-6.02199 8.89407,-8.977951 1.24774,-1.229509 0.89319,-2.557386 -0.85036,-2.731347 -1.30633,-0.130338 -3.80303,-0.139879 -5.53978,0.09238 z" />
  </g>
  <g
     id="layer6"
     transform="translate(-45.470855,-18.22577)">
    <path
       style="display:inline;fill:#ffffff;fill-opacity:0;stroke:#1e3c72;stroke-width:18.9;stroke-linecap:round;stroke-linejoin:round;stroke-dasharray:none;stroke-dashoffset:0;stroke-opacity:1;paint-order:normal"
       d="M 54.920856,118.54868 115.53473,57.934808"
       id="path18" />
  </g>
</svg>
