<?xml version="1.0" encoding="UTF-8" standalone="no"?>
<svg width="100%" height="100%" viewBox="0 0 230 206" version="1.1" xmlns="http://www.w3.org/2000/svg" xmlns:xlink="http://www.w3.org/1999/xlink" xml:space="preserve" xmlns:serif="http://www.serif.com/" style="fill-rule:evenodd;clip-rule:evenodd;stroke-linejoin:round;stroke-miterlimit:2;">
<g>
<g>
<path d="M217,91C221,98 221,106 217,112C206,130 186,166 175,184C172,191 164,195 157,195C156,195 155,195 155,195C167,194 169,187 169,176C169,176 169,63 169,22C169,21 170,19 172,19C174,18 175,19 176,20C187,39 207,73 217,91Z" style="fill:rgb(237,166,255);"/>
<path d="M176,184C172,191 165,195 157,195C136,195 95,195 74,195C66,195 59,191 55,184C55,184 55,183 55,183C61,193 69,191 78,186L207,111C218,105 220,98 216,90C216,90 217,90 217,91C221,98 221,106 217,112C207,130 186,166 176,184Z" style="fill:rgb(173,139,255);"/>
<path d="M74,195C66,195 59,191 55,184C45,166 24,130 14,112C10,106 10,98 14,91C14,90 14,90 14,90C9,100 15,106 24,111L153,186C164,193 171,191 176,183C176,183 176,184 175,184C172,191 164,195 157,195C136,195 95,195 74,195Z" style="fill:rgb(237,166,255);"/>
<path d="M14,112C10,106 10,98 14,91C24,73 45,37 55,19C59,12 66,8 74,8C75,8 75,8 75,8C64,9 61,17 61,27L61,176C61,189 66,195 75,195C75,195 75,195 74,195C66,195 59,191 55,184C45,166 24,130 14,112Z" style="fill:rgb(255,149,177);"/>
<path d="M55,19C59,12 66,8 74,8C94,8 134,8 155,8C157,8 158,9 159,11C159,13 159,14 157,15C122,36 24,92 24,92C12,98 10,105 14,114C14,114 14,113 14,113C10,106 10,98 14,91C24,73 45,37 55,19Z" style="fill:rgb(255,193,150);"/>
</g>
</g>
</svg>
