<svg width="128" height="128" viewBox="0 0 128 128" fill="none" xmlns="http://www.w3.org/2000/svg">
<path d="M106.667 0C118.449 0.000173172 128 9.55119 128 21.333V106.667C128 118.449 118.449 128 106.667 128H21.333C9.55119 128 0.000173183 118.449 0 106.667V21.333C0.000176265 9.55119 9.55119 0.000176276 21.333 0H106.667ZM43.2676 98.5342H68.4756C72.893 98.5342 76.6096 97.7203 79.625 96.0928C82.6404 94.4652 84.9157 92.2542 86.4521 89.4609C88.0078 86.6457 88.7861 83.4454 88.7861 79.8604C88.7861 76.5395 88.1715 73.6804 86.9424 71.2832C85.7132 68.8638 84.1091 66.9832 82.1309 65.6416C80.172 64.3001 78.0692 63.5739 75.8223 63.4639V62.8047C77.8773 62.2768 79.7018 61.3855 81.2959 60.1318C82.9092 58.8562 84.1768 57.2284 85.0986 55.249C86.0205 53.2476 86.4814 50.9273 86.4814 48.2881C86.4814 44.901 85.7517 41.9098 84.292 39.3145C82.8323 36.6972 80.6521 34.6513 77.752 33.1777C74.852 31.7043 71.2318 30.9678 66.8916 30.9678H43.2676V98.5342ZM66.2002 68.9072C68.1973 68.9073 69.9161 69.3143 71.3564 70.1279C72.8161 70.9417 73.9401 72.0636 74.7275 73.4932C75.515 74.9228 75.9082 76.5729 75.9082 78.4424C75.9081 80.9934 75.1114 83.0386 73.5176 84.5781C71.9235 86.0957 69.3882 86.8544 65.9121 86.8545H55.7422V68.9072H66.2002ZM65.2207 42.5146C67.9862 42.5147 70.1182 43.2623 71.6162 44.7578C73.1334 46.2533 73.8915 48.2219 73.8916 50.6631C73.8916 52.4445 73.4983 53.9734 72.7109 55.249C71.9427 56.5246 70.8863 57.5149 69.542 58.2188C68.2169 58.9005 66.6994 59.2411 64.9902 59.2412H55.7422V42.5146H65.2207Z" fill="#2A5298"/>
</svg>
